<svg xmlns="http://www.w3.org/2000/svg" width="144" height="150" viewBox="0 0 144 150"><title>logo</title><g fill="none"><path fill="#E1EBF2" d="M78.942,151 C86.062,147.636 91,140.384 91,132 L91,17 L145,17 L145,132 C145,142.476 136.476,151 126,151 L78.942,151 Z" transform="translate(-267.000000, -460.000000) translate(266.000000, 459.000000)"/><path fill="#FFF" d="M20,151 C9.524,151 1,142.476 1,132 L1,1 L107,1 L107,132 C107,142.14 114.986,150.452 125,150.974 L125,151 L20,151 Z" transform="translate(-267.000000, -460.000000) translate(266.000000, 459.000000)"/><path fill="#788B9C" d="M20,20 L88,20 L88,28 L20,28 L20,20 Z M20,44 L48,44 L48,46 L20,46 L20,44 Z M20,56 L48,56 L48,58 L20,58 L20,56 Z M20,68 L48,68 L48,70 L20,70 L20,68 Z M20,80 L48,80 L48,82 L20,82 L20,80 Z M20,92 L48,92 L48,94 L20,94 L20,92 Z M20,104 L48,104 L48,106 L20,106 L20,104 Z M20,116 L48,116 L48,118 L20,118 L20,116 Z M20,128 L48,128 L48,130 L20,130 L20,128 Z M108,40 L130,40 L130,42 L108,42 L108,40 Z M108,52 L130,52 L130,54 L108,54 L108,52 Z M108,64 L130,64 L130,66 L108,66 L108,64 Z M108,76 L130,76 L130,78 L108,78 L108,76 Z M108,88 L130,88 L130,90 L108,90 L108,88 Z M108,100 L130,100 L130,102 L108,102 L108,100 Z M108,112 L130,112 L130,114 L108,114 L108,112 Z M108,124 L130,124 L130,126 L108,126 L108,124 Z M60,44 L88,44 L88,46 L60,46 L60,44 Z M60,56 L88,56 L88,58 L60,58 L60,56 Z M60,68 L88,68 L88,70 L60,70 L60,68 Z M60,80 L88,80 L88,82 L60,82 L60,80 Z M60,92 L88,92 L88,94 L60,94 L60,92 Z M60,104 L88,104 L88,106 L60,106 L60,104 Z M60,116 L88,116 L88,118 L60,118 L60,116 Z M60,128 L88,128 L88,130 L60,130 L60,128 Z" transform="translate(-267.000000, -460.000000) translate(266.000000, 459.000000)"/></g></svg>