<svg xmlns="http://www.w3.org/2000/svg" width="128" height="128" viewBox="0 0 64 64"><path fill="#85cbf8" d="M43,9v4c0,1.1-0.9,2-2,2H27v40c0,1.1-0.9,2-2,2h-6c-1.1,0-2-0.9-2-2V15H3c-1.1,0-2-0.9-2-2V9 c0-1.1,0.9-2,2-2h38C42.1,7,43,7.9,43,9z"/><path fill="#72caaf" d="M61,30v4c0,0.55-0.45,1-1,1h-7v20c0,1.1-0.9,2-2,2h-4c-1.1,0-2-0.9-2-2V35h-7c-0.55,0-1-0.45-1-1v-4 c0-0.55,0.45-1,1-1h22C60.55,29,61,29.45,61,30z"/><path fill="#9fddff" d="M21,11v42c0,2.209-1.791,4-4,4h0V15H1V7h16C19.209,7,21,8.791,21,11z"/><path fill="#81d6bb" d="M48,33v21c0,1.657-1.343,3-3,3h0V35h-7.798C37.091,35,37,34.909,37,34.798v-5.596 C37,29.091,37.091,29,37.202,29H44C46.209,29,48,30.791,48,33z"/><path fill="#8d6c9f" d="M44,13V9c0-1.654-1.346-3-3-3H3C1.346,6,0,7.346,0,9v4c0,1.654,1.346,3,3,3h13v39 c0,1.654,1.346,3,3,3h6c1.654,0,3-1.346,3-3V16h13C42.654,16,44,14.654,44,13z M27,14c-0.552,0-1,0.447-1,1v40c0,0.552-0.449,1-1,1 h-6c-0.551,0-1-0.448-1-1V15c0-0.553-0.448-1-1-1H3c-0.551,0-1-0.448-1-1V9c0-0.552,0.449-1,1-1h38c0.551,0,1,0.448,1,1v4 c0,0.552-0.449,1-1,1H27z"/><path fill="#8d6c9f" d="M60 28H38c-1.103 0-2 .897-2 2v4c0 1.103.897 2 2 2h6v19c0 1.654 1.346 3 3 3h4c1.654 0 3-1.346 3-3V36h6c1.103 0 2-.897 2-2v-4C62 28.897 61.103 28 60 28zM60 34h-8v21c0 .552-.449 1-1 1h-4c-.551 0-1-.448-1-1V34h-8v-4h22V34zM31 22c-.552 0-1 .447-1 1v2c0 .553.448 1 1 1s1-.447 1-1v-2C32 22.447 31.552 22 31 22zM37 25v-2c0-.553-.448-1-1-1s-1 .447-1 1v2c0 .553.448 1 1 1S37 25.553 37 25zM40 23v2c0 .553.448 1 1 1s1-.447 1-1v-2c0-.553-.448-1-1-1S40 22.447 40 23zM46 26c.552 0 1-.447 1-1v-2c0-.553-.448-1-1-1s-1 .447-1 1v2C45 25.553 45.448 26 46 26zM51 26c.552 0 1-.447 1-1v-2c0-.553-.448-1-1-1s-1 .447-1 1v2C50 25.553 50.448 26 51 26zM56 26c.552 0 1-.447 1-1v-2c0-.553-.448-1-1-1s-1 .447-1 1v2C55 25.553 55.448 26 56 26zM61 22c-.552 0-1 .447-1 1v2c0 .553.448 1 1 1s1-.447 1-1v-2C62 22.447 61.552 22 61 22zM21 38c-.552 0-1 .447-1 1v14c0 .553.448 1 1 1s1-.447 1-1V39C22 38.447 21.552 38 21 38zM21 30c-.552 0-1 .447-1 1v4c0 .553.448 1 1 1s1-.447 1-1v-4C22 30.447 21.552 30 21 30z"/></svg>